<?xml version="1.0" encoding="UTF-8"?>
<svg id="Layer_1" data-name="Layer 1" xmlns="http://www.w3.org/2000/svg" viewBox="0 0 445.92 312.12">
  <path d="M185.56,34.04c14.38-14.98,34.4-24.27,56.54-24.27,29.44,0,55.12,16.41,68.79,40.78,11.89-5.31,25.04-8.26,38.88-8.26,53.09,0,96.14,43.42,96.14,96.97s-43.04,96.98-96.14,96.98c-6.48,0-12.81-.66-18.94-1.89-12.04,21.48-34.99,35.99-61.34,35.99-11.02,0-21.45-2.54-30.74-7.08-12.2,28.72-40.65,48.86-73.8,48.86s-63.95-21.84-75.24-52.48c-4.93,1.04-10.05,1.59-15.3,1.59C33.32,261.23,0,227.56,0,186.03c0-27.84,14.96-52.14,37.21-65.14-4.58-10.54-7.12-22.17-7.12-34.4C30.09,38.73,68.87,0,116.69,0c28.08,0,53.04,13.35,68.87,34.04" fill="#139cd8"/>
  <path d="M64.58,161.85c-.28.73.1.88.19,1.01.84.61,1.68,1.05,2.54,1.54,4.55,2.41,8.85,3.11,13.34,3.11,9.15,0,14.83-4.86,14.83-12.69v-.15c0-7.24-6.42-9.88-12.43-11.78l-.79-.25c-4.54-1.47-8.45-2.75-8.45-5.73v-.15c0-2.56,2.29-4.44,5.83-4.44,3.94,0,8.61,1.31,11.62,2.98,0,0,.89.57,1.21-.29.18-.47,1.7-4.56,1.86-5.01.17-.48-.13-.84-.45-1.03-3.44-2.09-8.19-3.52-13.11-3.52h-.91c-8.38,0-14.22,5.07-14.22,12.31v.15c0,7.63,6.45,10.12,12.49,11.84l.97.3c4.4,1.35,8.2,2.52,8.2,5.61v.16c0,2.83-2.47,4.94-6.44,4.94-1.55,0-6.47-.03-11.78-3.39-.64-.38-1.01-.65-1.51-.95-.26-.16-.92-.45-1.21.41l-1.8,5.01Z" fill="#fff"/>
  <path d="M198.49,161.85c-.28.73.1.88.19,1.01.84.61,1.68,1.05,2.54,1.54,4.55,2.41,8.85,3.11,13.34,3.11,9.15,0,14.83-4.86,14.83-12.69v-.15c0-7.24-6.42-9.88-12.43-11.78l-.79-.25c-4.54-1.47-8.45-2.75-8.45-5.73v-.15c0-2.56,2.29-4.44,5.83-4.44,3.94,0,8.61,1.31,11.62,2.98,0,0,.89.57,1.21-.29.18-.47,1.7-4.56,1.86-5.01.17-.48-.13-.84-.45-1.03-3.44-2.09-8.19-3.52-13.11-3.52h-.91c-8.38,0-14.22,5.07-14.22,12.31v.15c0,7.63,6.46,10.12,12.49,11.84l.97.3c4.4,1.35,8.21,2.52,8.21,5.61v.16c0,2.83-2.47,4.94-6.45,4.94-1.55,0-6.46-.03-11.78-3.39-.64-.38-1.02-.64-1.51-.95-.16-.1-.94-.41-1.2.41l-1.81,5.01Z" fill="#fff"/>
  <path d="M297.54,138.31c-.75-2.54-1.92-4.77-3.47-6.63-1.55-1.87-3.53-3.37-5.87-4.46-2.33-1.09-5.09-1.64-8.18-1.64s-5.86.56-8.19,1.64-4.31,2.59-5.86,4.46c-1.56,1.86-2.73,4.1-3.47,6.63-.75,2.52-1.13,5.28-1.13,8.2s.38,5.69,1.13,8.21c.75,2.53,1.91,4.76,3.47,6.63,1.55,1.87,3.53,3.36,5.87,4.42s5.09,1.6,8.19,1.6,5.84-.54,8.18-1.6c2.33-1.06,4.31-2.56,5.87-4.42,1.55-1.86,2.73-4.1,3.47-6.63.75-2.52,1.13-5.28,1.13-8.21s-.38-5.68-1.13-8.2M289.91,146.51c0,4.42-.83,7.92-2.45,10.38-1.61,2.44-4.04,3.63-7.43,3.63s-5.81-1.19-7.4-3.63c-1.61-2.46-2.42-5.96-2.42-10.38s.81-7.9,2.41-10.34c1.59-2.41,4.01-3.59,7.41-3.59s5.82,1.17,7.43,3.59c1.63,2.44,2.45,5.92,2.45,10.34" fill="#fff"/>
  <path d="M360.24,159.34c-.25-.74-.98-.46-.98-.46-1.11.43-2.29.81-3.55,1.01-1.27.2-2.67.3-4.18.3-3.69,0-6.63-1.1-8.74-3.27-2.1-2.18-3.29-5.69-3.28-10.44.01-4.32,1.06-7.57,2.93-10.05,1.86-2.46,4.7-3.73,8.47-3.73,3.15,0,5.55.37,8.07,1.15,0,0,.6.26.88-.52.68-1.86,1.17-3.18,1.88-5.22.2-.58-.29-.83-.48-.9-.99-.39-3.32-1.02-5.09-1.29-1.64-.25-3.58-.38-5.73-.38-3.2,0-6.06.55-8.51,1.64-2.44,1.08-4.51,2.58-6.15,4.45-1.64,1.87-2.88,4.1-3.71,6.63-.83,2.52-1.25,5.29-1.25,8.22,0,6.33,1.7,11.45,5.08,15.19,3.38,3.77,8.45,5.68,15.07,5.68,3.91,0,7.92-.79,10.81-1.93,0,0,.55-.27.31-.91l-1.87-5.18Z" fill="#fff" fill-rule="evenodd"/>
  <path d="M399.3,136.87c-.65-2.45-2.25-4.92-3.3-6.05-1.66-1.8-3.3-3.05-4.91-3.74-2.1-.9-4.63-1.5-7.41-1.5-3.22,0-6.15.54-8.53,1.66-2.38,1.11-4.38,2.64-5.95,4.54-1.57,1.89-2.75,4.15-3.5,6.71-.75,2.54-1.13,5.31-1.13,8.24s.39,5.76,1.17,8.25c.79,2.52,2.04,4.73,3.74,6.57,1.7,1.85,3.89,3.29,6.5,4.31,2.6,1,5.76,1.53,9.38,1.51,7.46-.02,11.4-1.68,13.02-2.58.29-.16.56-.44.22-1.24l-1.7-4.73c-.26-.7-.97-.45-.97-.45-1.85.69-4.48,1.92-10.61,1.91-4.01,0-6.98-1.19-8.84-3.04-1.91-1.89-2.85-4.67-3.01-8.59l25.84.02s.68,0,.75-.68c.03-.28.88-5.31-.77-11.13M373.6,142.27c.37-2.46,1.04-4.5,2.09-6.09,1.58-2.42,3.99-3.76,7.39-3.76s5.63,1.34,7.24,3.76c1.07,1.6,1.53,3.72,1.72,6.1h-18.44Z" fill="#fff" fill-rule="evenodd"/>
  <path d="M192.31,136.87c-.65-2.45-2.25-4.92-3.3-6.05-1.66-1.8-3.29-3.05-4.91-3.74-2.11-.9-4.63-1.5-7.4-1.5-3.23,0-6.16.54-8.54,1.66-2.38,1.11-4.38,2.64-5.95,4.54-1.57,1.89-2.75,4.15-3.5,6.71-.75,2.54-1.13,5.31-1.13,8.24s.39,5.76,1.17,8.25c.79,2.52,2.04,4.73,3.74,6.57,1.7,1.85,3.89,3.29,6.5,4.31,2.6,1,5.76,1.53,9.38,1.51,7.46-.02,11.4-1.68,13.02-2.58.29-.16.56-.44.22-1.24l-1.7-4.73c-.26-.7-.97-.45-.97-.45-1.85.69-4.48,1.92-10.61,1.91-4,0-6.98-1.19-8.84-3.04-1.91-1.89-2.85-4.67-3.01-8.59l25.84.02s.68,0,.75-.68c.03-.28.88-5.31-.77-11.13M166.61,142.27c.37-2.46,1.04-4.5,2.08-6.09,1.59-2.42,4-3.76,7.39-3.76s5.64,1.34,7.25,3.76c1.06,1.6,1.53,3.72,1.71,6.1h-18.44Z" fill="#fff" fill-rule="evenodd"/>
  <path d="M121.02,141.04c-1.05-.08-2.41-.12-4.03-.12-2.22,0-4.36.28-6.37.82-2.02.54-3.83,1.38-5.39,2.5-1.57,1.13-2.83,2.56-3.75,4.27s-1.38,3.71-1.38,5.95.39,4.28,1.19,5.9c.79,1.63,1.92,3,3.37,4.04,1.44,1.05,3.21,1.82,5.26,2.28,2.03.47,4.33.7,6.85.7,2.65,0,5.29-.22,7.85-.66,2.54-.43,5.64-1.06,6.51-1.26.86-.2,1.81-.46,1.81-.46.64-.16.59-.85.59-.85v-23.63c-.01-5.19-1.4-9.03-4.12-11.42-2.71-2.37-6.71-3.57-11.88-3.57-1.94,0-5.05.26-6.93.64,0,0-5.64,1.09-7.96,2.92,0,0-.51.31-.24,1.03l1.83,4.92c.23.64.85.42.85.42,0,0,.2-.08.43-.22,4.97-2.7,11.26-2.62,11.26-2.62,2.79,0,4.94.57,6.39,1.67,1.41,1.09,2.12,2.71,2.12,6.16v1.09c-2.22-.32-4.26-.5-4.26-.5M110.74,159.2c-1.02-.81-1.15-1.01-1.49-1.53-.52-.79-.78-1.92-.78-3.36,0-2.27.75-3.91,2.31-5-.01,0,2.23-1.94,7.5-1.87,3.7.05,7.02.6,7.02.6v11.75s-3.28.7-6.98.92c-5.26.32-7.6-1.51-7.58-1.51" fill="#fff"/>
  <path d="M329.49,127.72c.2-.58-.22-.86-.39-.93-.44-.16-2.64-.63-4.33-.74-3.25-.2-5.05.35-6.67,1.07-1.61.72-3.38,1.89-4.36,3.22v-3.15c0-.43-.31-.78-.75-.78h-6.63c-.43,0-.74.35-.74.78v38.56c0,.43.35.78.79.78h6.79c.43,0,.78-.35.78-.78v-19.26c0-2.59.29-5.16.86-6.78.56-1.61,1.32-2.88,2.26-3.8.94-.92,2.02-1.56,3.2-1.92,1.2-.37,2.53-.49,3.46-.49,1.36,0,2.84.35,2.84.35.5.05.78-.26.95-.7.44-1.18,1.7-4.72,1.94-5.43" fill="#fff" fill-rule="evenodd"/>
  <path d="M265.75,109.85c-.83-.26-1.57-.43-2.56-.6-1-.18-2.18-.28-3.51-.28-4.67,0-8.36,1.32-10.94,3.93-2.57,2.59-4.32,6.53-5.2,11.72l-.31,1.75h-5.87s-.72-.03-.87.75l-.96,5.37c-.07.51.15.83.84.83h5.71l-5.8,32.35c-.45,2.6-.97,4.74-1.55,6.37-.56,1.61-1.12,2.8-1.8,3.68-.66.84-1.28,1.47-2.37,1.83-.89.29-1.92.43-3.04.43-.62,0-1.45-.1-2.07-.23-.62-.12-.94-.26-1.4-.45,0,0-.67-.26-.94.41-.21.55-1.73,4.74-1.91,5.26-.18.51.07.91.4,1.03.76.27,1.32.45,2.36.69,1.44.34,2.65.36,3.79.36,2.38,0,4.55-.33,6.34-.98,1.81-.66,3.38-1.8,4.78-3.33,1.5-1.66,2.45-3.41,3.36-5.79.9-2.35,1.66-5.28,2.27-8.68l5.82-32.95h8.51s.72.03.87-.75l.96-5.37c.07-.51-.15-.83-.84-.83h-8.26c.04-.18.41-3.09,1.36-5.83.41-1.17,1.17-2.11,1.82-2.76.63-.64,1.36-1.09,2.16-1.35.82-.26,1.75-.39,2.77-.39.78,0,1.54.09,2.12.21.8.17,1.11.26,1.32.32.84.26.95.01,1.12-.39l1.97-5.43c.2-.58-.29-.83-.47-.9" fill="#fff" fill-rule="evenodd"/>
  <path d="M150.28,165.75c0,.43-.31.79-.74.79h-6.86c-.43,0-.74-.35-.74-.79v-55.16c0-.43.31-.78.74-.78h6.86c.43,0,.74.35.74.78v55.16Z" fill="#fff" fill-rule="evenodd"/>
</svg>